<svg width="20" height="21" viewBox="0 0 19.9998 20.1114" fill="none" xmlns="http://www.w3.org/2000/svg">
<path d="M9.8611 0.503852C10.8495 -0.155088 12.1336 -0.168747 13.1358 0.469013L17.291 3.11322H18.9998C19.5521 3.11322 19.9998 3.56094 19.9998 4.11322V13.1132C19.9998 13.6655 19.5521 14.1132 18.9998 14.1132H17.4801C17.5396 15.0605 17.0933 16.0235 16.1955 16.5622L11.1021 19.6183C10.4591 20.004 9.6609 19.995 9.0314 19.6107C8.3311 20.23 7.2531 20.2982 6.47104 19.6837L1.33028 15.6445C0.56387 15.0424 0.37006 14.0136 0.76579 13.198C0.28248 12.819 0 12.2387 0 11.6242V4.11328C0 3.561 0.44772 3.11328 1 3.11328H5.94693L9.8611 0.503852ZM2.17264 11.7585L2.86467 11.153C4.09488 10.0765 5.96042 10.1831 7.06001 11.3927L9.7622 14.3651C10.6317 15.3216 10.7903 16.7268 10.1579 17.8523L15.1665 14.8472C15.4479 14.6784 15.5497 14.3409 15.4448 14.0566L11.0177 7.85879C10.769 7.51064 10.3264 7.35926 9.9166 7.4822L7.43135 8.22778C6.37425 8.54488 5.22838 8.25598 4.44799 7.47563L4.15522 7.18286C3.58721 6.61485 3.44032 5.80646 3.67935 5.11328H2V11.6242L2.17264 11.7585ZM12.0621 2.15634C11.728 1.94375 11.3 1.9483 10.9705 2.16795L5.56943 5.76865L5.8622 6.06142C6.12233 6.32155 6.50429 6.41784 6.85666 6.31213L9.3419 5.56655C10.5713 5.19773 11.8992 5.65187 12.6452 6.69631L16.5144 12.1132H17.9998V5.11322H17.291C16.9106 5.11322 16.5381 5.00476 16.2172 4.80055L12.0621 2.15634ZM4.18168 12.6581L2.56593 14.0719L7.70669 18.1111L8.4106 16.8792C8.6256 16.503 8.5738 16.0311 8.2823 15.7104L5.58013 12.738C5.2136 12.3348 4.59175 12.2993 4.18168 12.6581Z" fill="#ffffff"/>
</svg>
