<svg width="24" height="24" viewBox="0 0 24 24" fill="none" xmlns="http://www.w3.org/2000/svg">
<path fill-rule="evenodd" clip-rule="evenodd" d="M11.7242 1.04004C11.9072 0.986627 12.1017 0.986652 12.2847 1.04012L21.2804 3.66794C21.7069 3.79252 22 4.18353 22 4.62782V10.0168C22 16.1116 18.0996 21.5224 12.3174 23.449C12.1123 23.5173 11.8905 23.5173 11.6853 23.449C5.90157 21.5224 2 16.1105 2 10.0143V4.62782C2 4.18344 2.29326 3.79236 2.71985 3.66787L11.7242 1.04004ZM4 5.3777V10.0143C4 15.1376 7.20889 19.6982 12.0013 21.4414C16.7922 19.6982 20 15.1388 20 10.0168V5.3775L12.0042 3.04175L4 5.3777ZM11.9749 6.97487C12.5272 6.97487 12.9749 7.42259 12.9749 7.97487V10.9749H15.9749C16.5272 10.9749 16.9749 11.4226 16.9749 11.9749C16.9749 12.5272 16.5272 12.9749 15.9749 12.9749H12.9749V15.9749C12.9749 16.5272 12.5272 16.9749 11.9749 16.9749C11.4226 16.9749 10.9749 16.5272 10.9749 15.9749V12.9749H7.97487C7.42259 12.9749 6.97487 12.5272 6.97487 11.9749C6.97487 11.4226 7.42259 10.9749 7.97487 10.9749H10.9749V7.97487C10.9749 7.42259 11.4226 6.97487 11.9749 6.97487Z" fill="#E1E1E2"/>
</svg>
