<svg width="50" height="42" viewBox="0 0 50 42" fill="none" xmlns="http://www.w3.org/2000/svg">
<g opacity="0.3">
<path d="M25 41.5434C36.2967 41.5434 45.4545 32.3457 45.4545 20.9999C45.4545 9.65411 36.2967 0.456506 25 0.456506C13.7033 0.456506 4.54545 9.65411 4.54545 20.9999C4.54545 32.3457 13.7033 41.5434 25 41.5434Z" fill="#707785"/>
<path d="M25 34.6955C32.5312 34.6955 38.6364 28.5638 38.6364 20.9999C38.6364 13.436 32.5312 7.30431 25 7.30431C17.4688 7.30431 11.3636 13.436 11.3636 20.9999C11.3636 28.5638 17.4688 34.6955 25 34.6955Z" fill="#A1A9BA"/>
<rect y="13.0108" width="50" height="15.9782" rx="2" fill="#D9D9D9"/>
<g>
<path d="M2.27273 25.5651V16.4347H5.28263C6.14594 16.4514 6.75648 16.7324 7.11425 17.2778C7.46423 17.8149 7.63534 18.4457 7.62756 19.1701C7.5809 21.0187 6.67676 21.9346 4.91515 21.918H3.99351V25.5651H2.27273ZM3.99351 17.7899V20.5628H4.75765C5.50041 20.5711 5.88345 20.1152 5.90678 19.1951C5.92234 18.2666 5.52374 17.7982 4.71099 17.7899H3.99351Z" fill="#151C31"/>
<path d="M7.00365 25.5651L9.26108 16.4347H11.3902L13.6476 25.5651H11.851L11.4602 23.6354H9.19108L8.79443 25.5651H7.00365ZM10.311 18.021L9.48857 22.1241H11.1627L10.3344 18.021H10.311Z" fill="#151C31"/>
<path d="M12.907 16.4347H18.3494V17.9398H16.4886V25.5651H14.7678V17.9398H12.907V16.4347Z" fill="#151C31"/>
<path d="M18.8571 16.4347H23.6228V17.9398H20.5779V20.0944H23.4478V21.5995H20.5779V24.0538H23.7453V25.5651H18.8571V16.4347Z" fill="#151C31"/>
<path d="M24.3696 16.4347H26.3529L28.4354 22.6861H28.4587V16.4347H30.0336V25.5651H28.0737L25.9738 19.1701H25.9504V25.5651H24.3696V16.4347Z" fill="#151C31"/>
<path d="M30.5414 16.4347H35.9837V17.9398H34.1229V25.5651H32.4021V17.9398H30.5414V16.4347Z" fill="#151C31"/>
<path d="M36.4914 16.4347H41.2571V17.9398H38.2122V20.0944H41.0821V21.5995H38.2122V24.0538H41.3796V25.5651H36.4914V16.4347Z" fill="#151C31"/>
<path d="M42.0915 25.5651V16.4347H44.9089C46.0716 16.443 46.8397 16.8427 47.213 17.6338C47.5707 18.429 47.7419 19.5073 47.7263 20.8688C47.7341 22.4717 47.5357 23.6583 47.1313 24.4285C46.6997 25.1863 45.9239 25.5651 44.8039 25.5651H42.0915ZM43.8123 17.7899V24.2099H44.5764C45.1558 24.2183 45.5447 23.9789 45.743 23.4917C45.9258 22.9963 46.0133 22.1407 46.0055 20.925C46.0133 19.8841 45.9336 19.0993 45.7664 18.5706C45.5836 18.0501 45.1753 17.7899 44.5414 17.7899H43.8123Z" fill="#151C31"/>
</g>
</g>
</svg>
