<?xml version="1.0" encoding="UTF-8"?>
<svg id="_레이어_1" xmlns="http://www.w3.org/2000/svg" xmlns:xlink="http://www.w3.org/1999/xlink" version="1.1" viewBox="0 0 40 42">
  <!-- Generator: Adobe Illustrator 30.4.0, SVG Export Plug-In . SVG Version: 2.1.4 Build 226)  -->
  <defs>
    <style>
      .st0 {
        fill: #707785;
      }

      .st1 {
        fill: url(#_무제_그라디언트);
      }

      .st2 {
        fill: #8998af;
      }

      .st3 {
        opacity: .3;
      }
    </style>
    <linearGradient id="_무제_그라디언트" data-name="무제 그라디언트" x1="7" y1="800.8" x2="7" y2="815.2" gradientTransform="translate(13 -793)" gradientUnits="userSpaceOnUse">
      <stop offset="0" stop-color="#fff"/>
      <stop offset="1" stop-color="#f1f5f5"/>
    </linearGradient>
  </defs>
  <g class="st3">
    <path class="st2" d="M14.5,22.9l4.7,2.7-9.5,16.4-2.7-6.1,7.5-13h0Z"/>
    <path class="st2" d="M14.4,22.9l-4.7-2.7L.3,36.6l6.6-.7s7.5-13,7.5-13Z"/>
    <path class="st2" d="M25.6,22.9l-4.7,2.7,9.5,16.4,2.7-6.1-7.5-13h0Z"/>
    <path class="st2" d="M25.6,22.9l4.7-2.7,9.5,16.4-6.6-.7-7.5-13h-.1Z"/>
    <path class="st0" d="M20,31.3c8.6,0,15.6-7,15.6-15.6S28.6,0,20,0,4.4,7.1,4.4,15.7s7,15.6,15.6,15.6Z"/>
    <path class="st1" d="M20,7.8l2.6,4.8,5.2.6-3.6,3.7,1,5.3-5.2-2.4-5.2,2.4,1-5.3-3.6-3.7,5.2-.6s2.6-4.8,2.6-4.8Z"/>
  </g>
</svg>