<svg width="24" height="24" viewBox="0 0 24 24" fill="none" xmlns="http://www.w3.org/2000/svg">
<path fill-rule="evenodd" clip-rule="evenodd" d="M4.22183 4.22182C6.21136 2.23232 8.96273 1 12 1C15.0373 1 17.7886 2.23231 19.7782 4.22182C21.7677 6.21136 23 8.96273 23 12C23 15.0373 21.7677 17.7886 19.7782 19.7782C17.7886 21.7677 15.0373 23 12 23C8.96273 23 6.21136 21.7677 4.22183 19.7782C2.23231 17.7886 1 15.0373 1 12C1 8.96273 2.23232 6.21136 4.22182 4.22183L4.22183 4.22182ZM12 3C9.51447 3 7.26584 4.00626 5.63603 5.63604C4.00625 7.26585 3 9.51447 3 12C3 14.4855 4.00627 16.7342 5.63604 18.3639C7.26584 19.9937 9.51447 21 12 21C14.4855 21 16.7342 19.9937 18.3639 18.3639C19.9937 16.7342 21 14.4855 21 12C21 9.51447 19.9937 7.26584 18.3639 5.63604C16.7342 4.00627 14.4855 3 12 3ZM17.7071 8.29289C18.0976 8.68342 18.0976 9.31658 17.7071 9.70711L11.7071 15.7071C11.3166 16.0976 10.6834 16.0976 10.2929 15.7071L7.29289 12.7071C6.90237 12.3166 6.90237 11.6834 7.29289 11.2929C7.68342 10.9024 8.31658 10.9024 8.70711 11.2929L11 13.5858L16.2929 8.29289C16.6834 7.90237 17.3166 7.90237 17.7071 8.29289Z" fill="#717274"/>
</svg>
