<svg width="1440" height="348" viewBox="0 0 1440 348" fill="none" xmlns="http://www.w3.org/2000/svg">
<svg x="80" y="0" width="1280" height="486" viewBox="0 0 1280 486" fill="none" overflow="visible">
<g opacity="0.6">
<g>
<path d="M261.829 450.54C211.645 475.042 159.86 491.069 80.2689 484.535L80.3395 484.464C104.248 480.185 137.938 473.413 178.039 457.778C212.335 444.398 240.904 427.672 268.86 409.781L261.829 450.54Z" fill="url(#paint0_linear_358_2320)"/>
<path d="M371.745 129.051C109.294 196.805 48.798 339.624 39.1737 378.906C37.723 384.895 36.8103 390.965 36.8103 397.108C36.6596 455.675 81.6381 460.34 95.2372 460.341C96.4594 460.341 96.6129 459.953 96.4601 459.486C96.3759 459.176 95.3901 458.869 95.3901 458.869C38.1049 437.244 68.2049 370.423 68.2049 370.423C115.259 258.098 293.385 191.049 406.279 170.047L409.783 147.953L483.496 211.66H483.649L390.688 276.767L394.133 252.881C186.37 276.14 116.32 361.248 96.613 389.408C71.7189 424.95 90.8836 449.602 98.4473 454.74C99.7458 455.673 99.5935 454.74 99.2115 454.04C91.5786 440.505 107.313 419.819 107.313 419.819C130.993 387.849 200.955 331.298 311.249 314.262L303.159 369.722C252.517 378.279 220.278 393.99 185.447 412.581C148.48 432.338 117.397 457.858 99.141 467.816C72.0249 482.673 27.335 474.815 10.5305 442.222C-11.468 399.594 -1.00283 336.346 61.0206 246.035C133.891 140.092 286.96 84.4806 380.835 65.3442L371.745 129.051Z" fill="url(#paint1_linear_358_2320)"/>
<path d="M305.452 45.8134C169.566 92.0971 87.9835 174.942 70.1098 227.216H70.0392C88.0663 170.042 151.306 56.0071 312.166 0L305.452 45.8134Z" fill="url(#paint2_linear_358_2320)"/>
<path d="M886.645 90.9236C908.338 90.9236 929.581 94.1866 949.975 100.487L938.899 174.624C926.83 169.49 913.152 166.454 898.792 165.832C896.503 165.676 894.214 165.677 891.925 165.677C825.242 165.677 790.333 208.38 790.333 250.541C790.333 271.076 797.817 290.91 816.836 305.301C833.946 318.291 858.922 323.277 883.212 323.277C886.952 323.277 890.77 323.042 894.359 322.731C902.378 322.031 910.25 320.549 917.887 318.294L908.339 384.409C895.966 388.843 873.513 395.076 844.033 395.076C838.763 395.076 833.335 394.836 827.912 394.447C782.542 391.103 745.192 372.201 722.887 341.088C701.042 310.595 695.08 270.767 705.697 225.73C728.487 129.275 812.421 93.1146 880.213 90.9474L886.645 90.9236Z" fill="url(#paint3_linear_358_2320)"/>
<path d="M618.544 390.793H534.296L577.449 96.2869H661.697L618.544 390.793Z" fill="url(#paint4_linear_358_2320)"/>
<path fill-rule="evenodd" clip-rule="evenodd" d="M1209.68 96.2869C1232.36 96.2879 1250 102.744 1262.15 115.497C1274.44 128.41 1280.64 147.398 1279.95 170.424C1279.03 201.147 1262.69 220.285 1255.74 227.13L1248.44 234.237L1255.2 241.831C1263.52 251.321 1273.3 268.04 1272.54 293.862C1270.78 352.747 1229.23 390.792 1166.6 390.793H985.944L1029.11 96.2869H1209.68ZM1079.21 324.832H1152.54C1155.9 324.832 1167.51 324.207 1175.38 316.039C1179.96 311.294 1182.25 304.908 1182.1 298.063C1182.17 296.416 1182.17 288.027 1175.84 281.19C1171.03 276.056 1164.3 273.406 1155.9 273.406H1086.77L1079.21 324.832ZM1095.71 212.808H1168.2C1171.35 212.808 1181.76 212.266 1189.53 205.463L1190.96 204.027C1195.47 199.204 1197.84 192.82 1197.69 185.896C1197.76 183.638 1197.45 175.71 1191.34 169.178C1186.53 164.046 1179.89 161.395 1171.49 161.394H1103.2L1095.71 212.808Z" fill="url(#paint5_linear_358_2320)"/>
</g>
<path d="M261.829 450.54L259.476 451.682C210.02 475.538 158.616 490.967 80.2687 484.535L80.34 484.464C104.248 480.186 137.938 473.413 178.039 457.777C212.335 444.398 240.904 427.672 268.861 409.781L261.829 450.54ZM267.489 411.842C240.115 429.288 212.007 445.6 178.402 458.709C142.19 472.828 111.195 479.734 87.9064 484.096C162.803 489.005 212.626 473.393 260.931 449.862L267.489 411.842ZM371.745 129.051C109.295 196.804 48.7985 339.623 39.174 378.906C37.7233 384.895 36.8107 390.965 36.8107 397.108C36.6647 453.845 78.8718 459.996 93.8732 460.325L95.2375 460.341C96.3827 460.341 96.5897 460 96.4855 459.573L96.4601 459.486C96.3759 459.177 95.3898 458.869 95.3898 458.869C38.1615 437.265 68.1461 370.554 68.2052 370.423C115.259 258.099 293.385 191.049 406.279 170.047L409.783 147.953L483.496 211.66H483.65L390.688 276.767L394.133 252.881C186.371 276.139 116.321 361.248 96.6134 389.407L96.0373 390.238C72.0173 425.334 90.9428 449.642 98.4474 454.74C99.7457 455.673 99.5939 454.74 99.2121 454.04C91.5791 440.505 107.314 419.819 107.314 419.819C130.994 387.849 200.956 331.299 311.249 314.263L303.159 369.723L300.799 370.129C251.509 378.771 219.734 394.28 185.447 412.581C148.48 432.338 117.397 457.858 99.1408 467.816C72.0247 482.674 27.3348 474.814 10.5304 442.222C-11.2961 399.927 -1.16428 337.333 59.5763 248.146L61.0206 246.035C133.891 140.093 286.961 84.4811 380.835 65.3447L371.745 129.051ZM379.644 66.6094C332.953 76.2468 271.936 94.8297 213.498 124.031C154.469 153.528 98.1478 193.822 61.8449 246.602L61.8439 246.601C-0.13842 336.852 -10.3077 399.661 11.4191 441.763C19.6639 457.754 34.7687 467.716 51.2121 471.843C67.6673 475.972 85.3549 474.23 98.6603 466.939L98.6623 466.938C107.73 461.992 119.997 453.172 134.711 443.05C149.392 432.951 166.441 421.605 184.976 411.699L188.238 409.963C221.72 392.197 253.471 377.199 302.275 368.859L310.064 315.461C200.79 332.707 131.536 388.795 108.116 420.415L108.11 420.425L108.108 420.427C108.106 420.429 108.104 420.432 108.101 420.437C108.094 420.445 108.083 420.459 108.069 420.478C108.042 420.515 108 420.571 107.945 420.646C107.836 420.795 107.674 421.019 107.471 421.309C107.064 421.889 106.488 422.736 105.819 423.796C104.482 425.918 102.781 428.88 101.318 432.252C98.4024 438.967 96.5735 446.97 99.9191 453.251L100.083 453.549L100.09 453.561C100.213 453.786 100.327 454.047 100.4 454.308C100.456 454.512 100.554 454.934 100.397 455.354C100.3 455.611 100.101 455.877 99.7697 456.025C99.4664 456.161 99.1723 456.144 98.9699 456.104C98.5898 456.027 98.2121 455.802 97.8634 455.552C93.8723 452.829 87.0623 445.176 84.3849 433.703C81.6888 422.15 83.2016 406.813 95.7941 388.834L96.7619 387.463C117.889 357.799 189.213 274.816 394.022 251.888L395.308 251.743L392.007 274.621L481.94 211.636L410.489 149.885L407.156 170.901L406.462 171.03C350.095 181.517 277.436 203.501 213.012 236.877C148.557 270.269 92.5175 314.972 69.1271 370.809L69.1222 370.821L69.1164 370.833V370.835C69.1157 370.837 69.114 370.839 69.1125 370.843C69.1093 370.85 69.1044 370.861 69.0978 370.876C69.0845 370.906 69.0639 370.952 69.0373 371.014C68.9839 371.137 68.9051 371.321 68.8039 371.563C68.6012 372.049 68.3097 372.767 67.9582 373.691C67.2549 375.54 66.3115 378.209 65.3566 381.481C63.4452 388.031 61.4956 396.967 61.3156 406.555C61.1356 416.143 62.7266 426.332 67.8468 435.436C72.9541 444.516 81.6161 452.596 95.7238 457.926C95.7309 457.928 95.7392 457.931 95.7482 457.934C95.7817 457.945 95.8279 457.961 95.883 457.98C95.992 458.02 96.1442 458.078 96.3039 458.149C96.4566 458.218 96.6505 458.315 96.8273 458.438C96.9162 458.499 97.0251 458.584 97.1261 458.693C97.2157 458.791 97.3361 458.952 97.4074 459.175H97.4103C97.4141 459.186 97.4163 459.2 97.4201 459.212C97.4212 459.216 97.4238 459.22 97.425 459.224C97.5395 459.606 97.6241 460.299 97.0343 460.831C96.5615 461.258 95.8717 461.341 95.2375 461.341C88.3572 461.341 73.4819 460.166 60.3185 451.522C47.0816 442.831 35.7346 426.69 35.8107 397.105C35.811 390.864 36.7383 384.714 38.2023 378.671V378.669C47.9087 339.051 108.598 196.161 370.849 128.25L379.644 66.6094ZM789.333 250.541C789.333 207.765 824.755 164.678 891.925 164.678C894.208 164.678 896.531 164.676 898.859 164.834C912.853 165.443 926.215 168.325 938.1 173.205L948.859 101.192C928.811 95.086 907.947 91.924 886.647 91.9238L880.244 91.9463L880.245 91.9473C812.724 94.1059 729.32 130.099 706.67 225.96C696.104 270.787 702.062 310.301 723.7 340.505L724.747 341.941C746.958 371.913 783.554 390.175 827.986 393.45C833.391 393.838 838.793 394.076 844.033 394.076V395.076L842.05 395.065C837.406 395.014 832.657 394.788 827.912 394.447C783.251 391.155 746.361 372.788 723.944 342.537L722.888 341.088C701.043 310.596 695.08 270.767 705.696 225.729C728.487 129.275 812.422 93.1145 880.214 90.9473L886.646 90.9238C908.338 90.9239 929.581 94.1865 949.976 100.487L938.9 174.624C926.831 169.49 913.151 166.454 898.791 165.832L897.934 165.78C896.503 165.706 895.072 165.686 893.642 165.68L891.925 165.678C825.242 165.678 790.333 208.38 790.333 250.541L790.339 251.503C790.57 271.695 798.114 291.135 816.836 305.301C833.411 317.885 857.369 322.958 880.933 323.263L883.212 323.277C886.485 323.277 889.817 323.097 893.003 322.844L894.359 322.731C902.378 322.031 910.25 320.549 917.887 318.294L908.339 384.409L907.15 384.83C894.555 389.226 872.592 395.075 844.033 395.076V394.076C872.928 394.075 895.03 388.057 907.436 383.667L916.676 319.683C909.926 321.58 903.001 322.884 895.96 323.586L894.445 323.728C890.842 324.04 886.992 324.277 883.212 324.277C858.828 324.277 833.594 319.279 816.233 306.099L815.336 305.409C796.69 290.859 789.333 271.012 789.333 250.541ZM618.544 390.793H534.296L577.449 96.2871H661.697L618.544 390.793ZM1210.74 96.292C1232.91 96.4915 1250.19 102.943 1262.15 115.497C1274.44 128.41 1280.64 147.399 1279.95 170.424L1279.89 171.855C1278.52 201.742 1262.58 220.392 1255.74 227.13L1248.44 234.237L1255.2 241.831C1263.52 251.321 1273.3 268.04 1272.54 293.862L1272.49 295.238C1270.15 352.881 1229.39 390.201 1168.06 390.786L1166.6 390.793V389.793C1197.71 389.792 1223.5 380.345 1241.72 363.671C1259.94 347.002 1270.67 323.036 1271.54 293.832C1272.29 268.305 1262.63 251.825 1254.45 242.491L1247.05 234.188L1255.04 226.417C1261.89 219.665 1278.04 200.757 1278.95 170.394C1279.63 147.556 1273.49 128.856 1261.42 116.188C1249.52 103.685 1232.17 97.2881 1209.68 97.2871H1029.97L987.102 389.793H1166.6V390.793H985.944L1029.11 96.2871H1209.68L1210.74 96.292ZM535.453 389.793H617.68L660.54 97.2871H578.314L535.453 389.793ZM1155.9 272.406V273.406H1086.77L1079.21 324.832H1152.54C1155.9 324.832 1167.51 324.207 1175.38 316.039C1179.96 311.294 1182.25 304.908 1182.1 298.062C1182.17 296.415 1182.17 288.026 1175.84 281.189C1171.18 276.216 1164.72 273.573 1156.68 273.413L1155.9 273.406V272.406C1164.25 272.406 1171.09 274.966 1176.09 280.01L1176.57 280.506L1176.57 280.51C1183.12 287.582 1183.17 296.22 1183.1 298.062C1183.25 305.137 1180.88 311.78 1176.1 316.731L1176.1 316.732C1167.93 325.214 1155.94 325.832 1152.54 325.832H1078.05L1085.91 272.406H1155.9ZM305.452 45.8135L302.277 46.9053C168.295 93.3901 87.8436 175.351 70.1095 227.216H70.0392C88.0663 170.042 151.307 56.0071 312.166 0L305.452 45.8135ZM1171.49 160.394V161.394H1103.2L1095.71 212.808H1168.2C1171.35 212.808 1181.76 212.266 1189.53 205.463L1190.96 204.027C1195.33 199.355 1197.69 193.217 1197.69 186.544L1197.69 185.896C1197.76 183.638 1197.45 175.71 1191.34 169.178C1186.68 164.206 1180.3 161.563 1172.27 161.401L1171.49 161.394V160.394C1179.85 160.395 1186.6 162.958 1191.59 167.998L1192.07 168.494L1192.07 168.495C1198.39 175.257 1198.76 183.431 1198.69 185.874L1198.69 186.545C1198.69 193.458 1196.24 199.844 1191.69 204.71L1191.68 204.723L1190.21 206.193L1190.19 206.216C1182.13 213.27 1171.4 213.808 1168.2 213.808H1094.55L1102.33 160.394H1171.49ZM310.937 1.48926C170.636 50.8594 105.263 144.511 79.423 204.931C92.1862 182.928 113.518 157.987 142.886 133.5C182.485 100.482 236.765 68.2317 304.551 45.0654L310.937 1.48926Z" fill="url(#paint6_linear_358_2320)"/>
</g>
<defs>
<linearGradient id="paint0_linear_358_2320" x1="640" y1="0" x2="640" y2="486" gradientUnits="userSpaceOnUse">
<stop stop-color="#E52006"/>
<stop offset="0.706731" stop-color="#EA4109"/>
</linearGradient>
<linearGradient id="paint1_linear_358_2320" x1="640" y1="0" x2="640" y2="486" gradientUnits="userSpaceOnUse">
<stop stop-color="#E52006"/>
<stop offset="0.706731" stop-color="#EA4109"/>
</linearGradient>
<linearGradient id="paint2_linear_358_2320" x1="640" y1="0" x2="640" y2="486" gradientUnits="userSpaceOnUse">
<stop stop-color="#E52006"/>
<stop offset="0.706731" stop-color="#EA4109"/>
</linearGradient>
<linearGradient id="paint3_linear_358_2320" x1="640" y1="0" x2="640" y2="486" gradientUnits="userSpaceOnUse">
<stop stop-color="#E52006"/>
<stop offset="0.706731" stop-color="#EA4109"/>
</linearGradient>
<linearGradient id="paint4_linear_358_2320" x1="640" y1="0" x2="640" y2="486" gradientUnits="userSpaceOnUse">
<stop stop-color="#E52006"/>
<stop offset="0.706731" stop-color="#EA4109"/>
</linearGradient>
<linearGradient id="paint5_linear_358_2320" x1="640" y1="0" x2="640" y2="486" gradientUnits="userSpaceOnUse">
<stop stop-color="#E52006"/>
<stop offset="0.706731" stop-color="#EA4109"/>
</linearGradient>
<linearGradient id="paint6_linear_358_2320" x1="640" y1="0" x2="640" y2="486" gradientUnits="userSpaceOnUse">
<stop stop-color="#FFB1A6" stop-opacity="0.2"/>
<stop offset="1" stop-color="white" stop-opacity="0.4"/>
</linearGradient>
</defs>
</svg>
</svg>
