<svg width="16" height="16" viewBox="0 0 16 16" fill="none" xmlns="http://www.w3.org/2000/svg">
<path d="M11.5783 4.70707C11.9688 4.31659 12.6018 4.31656 12.9924 4.70707C13.3828 5.09758 13.3828 5.73062 12.9924 6.12113L8.75798 10.3545C8.75509 10.3575 8.7531 10.3614 8.75017 10.3643C8.62815 10.4863 8.4819 10.5695 8.32732 10.6153C8.26556 10.6336 8.20249 10.6463 8.13884 10.6524C7.94738 10.6708 7.75168 10.6337 7.57732 10.542C7.51937 10.5116 7.46358 10.4753 7.4113 10.4327L7.33513 10.3643L3.09294 6.12113C2.70242 5.73061 2.70242 5.09759 3.09294 4.70707C3.48347 4.31656 4.11649 4.31655 4.507 4.70707L8.04216 8.24125L11.5783 4.70707Z" fill="#717274"/>
</svg>
