<svg width="27" height="18" viewBox="0 0 27 18" fill="none" xmlns="http://www.w3.org/2000/svg">
<g clip-path="url(#clip0_343_1454)">
<rect width="27" height="18" rx="2" fill="#CB1D23"/>
<path fill-rule="evenodd" clip-rule="evenodd" d="M0 3.59987H28.125V1.79987H0V3.59987Z" fill="white"/>
<path fill-rule="evenodd" clip-rule="evenodd" d="M0 7.1999H28.125V5.3999H0V7.1999Z" fill="white"/>
<path fill-rule="evenodd" clip-rule="evenodd" d="M0 10.7999H28.125V8.99988H0V10.7999Z" fill="white"/>
<path fill-rule="evenodd" clip-rule="evenodd" d="M0 14.3999H28.125V12.5999H0V14.3999Z" fill="white"/>
<path fill-rule="evenodd" clip-rule="evenodd" d="M0 17.9999H28.125V16.1999H0V17.9999Z" fill="#F4F4F4"/>
<path fill-rule="evenodd" clip-rule="evenodd" d="M0 8.99963H14.0625V-0.000366211H0V8.99963Z" fill="#2A3560"/>
<path fill-rule="evenodd" clip-rule="evenodd" d="M1.83076 1.0799L2.01421 1.65807H2.60684L2.12794 2.01504L2.31081 2.59322L1.83076 2.23566L1.35072 2.59322L1.53359 2.01504L1.05469 1.65807H1.64732L1.83076 1.0799Z" fill="white"/>
<path fill-rule="evenodd" clip-rule="evenodd" d="M1.83076 3.63214L2.01421 4.21032H2.60684L2.12794 4.56729L2.31081 5.14547L1.83076 4.78791L1.35072 5.14547L1.53359 4.56729L1.05469 4.21032H1.64732L1.83076 3.63214Z" fill="white"/>
<path fill-rule="evenodd" clip-rule="evenodd" d="M1.83076 6.18439L2.01421 6.76256H2.60684L2.12794 7.11954L2.31081 7.69771L1.83076 7.34016L1.35072 7.69771L1.53359 7.11954L1.05469 6.76256H1.64732L1.83076 6.18439Z" fill="white"/>
<path fill-rule="evenodd" clip-rule="evenodd" d="M3.56636 2.42517L3.74981 3.00218H4.34301L3.86353 3.36032L4.04698 3.93733L3.56636 3.58094L3.08631 3.93733L3.26976 3.36032L2.79028 3.00218H3.38348L3.56636 2.42517Z" fill="white"/>
<path fill-rule="evenodd" clip-rule="evenodd" d="M3.56636 4.97742L3.74981 5.55442H4.34301L3.86353 5.91257L4.04698 6.48957L3.56636 6.13319L3.08631 6.48957L3.26976 5.91257L2.79028 5.55442H3.38348L3.56636 4.97742Z" fill="white"/>
<path fill-rule="evenodd" clip-rule="evenodd" d="M5.32499 1.0799L5.50786 1.65807H6.10106L5.62159 2.01504L5.80503 2.59322L5.32499 2.23566L4.84437 2.59322L5.02782 2.01504L4.54834 1.65807H5.14154L5.32499 1.0799Z" fill="white"/>
<path fill-rule="evenodd" clip-rule="evenodd" d="M5.32499 3.63214L5.50786 4.21032H6.10106L5.62159 4.56729L5.80503 5.14547L5.32499 4.78791L4.84437 5.14547L5.02782 4.56729L4.54834 4.21032H5.14154L5.32499 3.63214Z" fill="white"/>
<path fill-rule="evenodd" clip-rule="evenodd" d="M5.32499 6.18439L5.50786 6.76256H6.10106L5.62159 7.11954L5.80503 7.69771L5.32499 7.34016L4.84437 7.69771L5.02782 7.11954L4.54834 6.76256H5.14154L5.32499 6.18439Z" fill="white"/>
<path fill-rule="evenodd" clip-rule="evenodd" d="M7.0605 2.42517L7.24395 3.00218H7.83715L7.35767 3.36032L7.54055 3.93733L7.0605 3.58094L6.58045 3.93733L6.76333 3.36032L6.28442 3.00218H6.87762L7.0605 2.42517Z" fill="white"/>
<path fill-rule="evenodd" clip-rule="evenodd" d="M7.0605 4.97742L7.24395 5.55442H7.83715L7.35767 5.91257L7.54055 6.48957L7.0605 6.13319L6.58045 6.48957L6.76333 5.91257L6.28442 5.55442H6.87762L7.0605 4.97742Z" fill="white"/>
<path fill-rule="evenodd" clip-rule="evenodd" d="M8.81856 1.0799L9.002 1.65807H9.5952L9.11573 2.01504L9.2986 2.59322L8.81856 2.23566L8.33851 2.59322L8.52196 2.01504L8.04248 1.65807H8.63568L8.81856 1.0799Z" fill="white"/>
<path fill-rule="evenodd" clip-rule="evenodd" d="M8.81856 3.63214L9.002 4.21032H9.5952L9.11573 4.56729L9.2986 5.14547L8.81856 4.78791L8.33851 5.14547L8.52196 4.56729L8.04248 4.21032H8.63568L8.81856 3.63214Z" fill="white"/>
<path fill-rule="evenodd" clip-rule="evenodd" d="M8.81856 6.18439L9.002 6.76256H9.5952L9.11573 7.11954L9.2986 7.69771L8.81856 7.34016L8.33851 7.69771L8.52196 7.11954L8.04248 6.76256H8.63568L8.81856 6.18439Z" fill="white"/>
<path fill-rule="evenodd" clip-rule="evenodd" d="M10.5548 2.42517L10.7382 3.00218H11.3308L10.8514 3.36032L11.0348 3.93733L10.5548 3.58094L10.0747 3.93733L10.2576 3.36032L9.77869 3.00218H10.3713L10.5548 2.42517Z" fill="white"/>
<path fill-rule="evenodd" clip-rule="evenodd" d="M10.5548 4.97742L10.7382 5.55442H11.3308L10.8514 5.91257L11.0348 6.48957L10.5548 6.13319L10.0747 6.48957L10.2576 5.91257L9.77869 5.55442H10.3713L10.5548 4.97742Z" fill="white"/>
<path fill-rule="evenodd" clip-rule="evenodd" d="M12.3128 1.0799L12.4963 1.65807H13.0895L12.61 2.01504L12.7929 2.59322L12.3128 2.23566L11.8328 2.59322L12.0162 2.01504L11.5367 1.65807H12.1299L12.3128 1.0799Z" fill="white"/>
<path fill-rule="evenodd" clip-rule="evenodd" d="M12.3128 3.63214L12.4963 4.21032H13.0895L12.61 4.56729L12.7929 5.14547L12.3128 4.78791L11.8328 5.14547L12.0162 4.56729L11.5367 4.21032H12.1299L12.3128 3.63214Z" fill="white"/>
<path fill-rule="evenodd" clip-rule="evenodd" d="M12.3128 6.18439L12.4963 6.76256H13.0895L12.61 7.11954L12.7929 7.69771L12.3128 7.34016L11.8328 7.69771L12.0162 7.11954L11.5367 6.76256H12.1299L12.3128 6.18439Z" fill="white"/>
</g>
<defs>
<clipPath id="clip0_343_1454">
<rect width="27" height="18" rx="2" fill="white"/>
</clipPath>
</defs>
</svg>
