<svg width="85" height="32" viewBox="0 0 85 32" fill="none" xmlns="http://www.w3.org/2000/svg">
<g clip-path="url(#clip0_343_1443)">
<path d="M58.8014 9.07001C60.2461 9.07001 61.6608 9.28484 63.0191 9.69969L62.2814 14.5809C61.4777 14.2429 60.5667 14.043 59.6103 14.002C59.4578 13.9918 59.3054 13.9919 59.153 13.9919C54.712 13.9919 52.3871 16.8035 52.387 19.5794C52.387 20.9315 52.8855 22.2374 54.1521 23.1849C55.2916 24.0402 56.955 24.3684 58.5727 24.3684C58.8218 24.3684 59.0761 24.353 59.3151 24.3325C59.8491 24.2864 60.3734 24.1888 60.882 24.0403L60.2462 28.3934C59.4221 28.6854 57.9268 29.0957 55.9634 29.0958C55.6125 29.0958 55.251 29.08 54.8898 29.0544C51.8682 28.8342 49.3807 27.5896 47.8952 25.5411C46.4404 23.5335 46.0433 20.9111 46.7503 17.9458C48.2682 11.5951 53.8581 9.21426 58.373 9.07157L58.8014 9.07001Z" fill="#8C8D8E"/>
<path d="M40.9461 28.8138H35.3352L38.2092 9.42313H43.82L40.9461 28.8138Z" fill="#8C8D8E"/>
<path fill-rule="evenodd" clip-rule="evenodd" d="M80.3153 9.42313C81.8258 9.4232 83.0006 9.84827 83.8094 10.688C84.6284 11.5382 85.0408 12.7884 84.995 14.3044C84.9339 16.3272 83.8455 17.5873 83.3826 18.038L82.8963 18.5059L83.3466 19.0059C83.9011 19.6307 84.5524 20.7316 84.5017 22.4317C84.3847 26.3087 81.6173 28.8137 77.446 28.8138H65.4146L68.2893 9.42313H80.3153ZM71.6261 24.4708H76.5094C76.7333 24.4708 77.507 24.4297 78.031 23.8919C78.3362 23.5795 78.4883 23.159 78.4781 22.7083C78.4832 22.5999 78.4832 22.0475 78.0615 21.5974C77.741 21.2593 77.293 21.0849 76.7334 21.0849H72.1296L71.6261 24.4708ZM72.7247 17.095H77.5525C77.7624 17.095 78.4555 17.0593 78.973 16.6114L79.0686 16.5169C79.3687 16.1993 79.5267 15.779 79.5165 15.3231C79.5216 15.1744 79.5005 14.6524 79.0936 14.2224C78.7732 13.8844 78.3311 13.7099 77.7718 13.7099H73.2236L72.7247 17.095Z" fill="#8C8D8E"/>
<path d="M17.4388 29.7557C14.0966 31.3691 10.647 32.4242 5.34628 31.994L5.35176 31.9893C6.94402 31.7076 9.18776 31.2617 11.8585 30.2323C14.1424 29.3514 16.0446 28.25 17.9063 27.0721L17.4388 29.7557ZM24.7591 8.58855C7.27994 13.0495 3.25113 22.4529 2.61015 25.0393C2.51353 25.4336 2.45197 25.8332 2.45197 26.2378C2.44193 30.0941 5.43846 30.4011 6.34394 30.4011C6.42511 30.401 6.43555 30.3755 6.42538 30.3448C6.42017 30.3251 6.35854 30.3056 6.35412 30.3042C2.53881 28.8804 4.54283 24.4807 4.54283 24.4807C7.67648 17.0851 19.5396 12.6706 27.0583 11.2878L27.2924 9.83308L32.2017 14.0276H32.2118L26.0207 18.3143L26.2494 16.7417C12.4125 18.2731 7.74803 23.8767 6.43556 25.7307C4.77722 28.0713 6.05411 29.6943 6.55772 30.0323C6.64411 30.0937 6.63327 30.0323 6.60784 29.9862C6.10173 29.0986 7.13912 27.7439 7.14739 27.7331C8.72439 25.6281 13.3844 21.9047 20.7301 20.7831L20.1906 24.4346C16.8181 24.998 14.6714 26.0325 12.3518 27.2565C9.88968 28.5574 7.81895 30.2377 6.60314 30.8932C4.79722 31.8714 1.8209 31.354 0.701757 29.2081C-0.763232 26.4014 -0.0662876 22.237 4.06436 16.2909C8.91746 9.31529 19.1125 5.65394 25.3645 4.39402L24.7591 8.58855ZM20.3433 3.10808C11.2934 6.15546 5.86006 11.6101 4.66969 15.0518H4.66499C5.86554 11.2874 10.0778 3.77925 20.7912 0.0916748L20.3433 3.10808Z" fill="url(#paint0_linear_343_1443)"/>
</g>
<defs>
<linearGradient id="paint0_linear_343_1443" x1="5.87611" y1="33.2545" x2="18.2986" y2="28.0144" gradientUnits="userSpaceOnUse">
<stop stop-color="#ED7300"/>
<stop offset="0.02" stop-color="#ED7300"/>
<stop offset="0.11" stop-color="#EB6302"/>
<stop offset="0.39" stop-color="#E83809"/>
<stop offset="0.64" stop-color="#E6190E"/>
<stop offset="0.85" stop-color="#E50611"/>
<stop offset="1" stop-color="#E50013"/>
</linearGradient>
<clipPath id="clip0_343_1443">
<rect width="85" height="32" fill="white"/>
</clipPath>
</defs>
</svg>
